# xmcd CD database file
#
# Track frame offsets:
#	150
#	13664
#	28409
#	41800
#	51335
#	67273
#	80721
#	91516
#	105107
#	119828
#	136054
#	146204
#	162837
#
# Disc length: 2352 seconds
#
# Revision: 3
# Processed by: cddbd v1.5.2PL0 Copyright (c) Steve Scherf et al.
# Submitted via: CDex 1.72
#
DISCID=b8092e0d
DTITLE=Gilmore, Jimmie Dale (USA-05-Come On Back-cty) - Come On Back
DYEAR=2005
DGENRE=Country
TTITLE0=Pick Me Up On Your Way Down
TTITLE1=Saginaw, Michigan
TTITLE2=Standin' On The Corner  (Blue Yodel #9)
TTITLE3=Don't Let The Stars Get In Your Eyes
TTITLE4=Four Walls
TTITLE5=I'll Never Get Out Of This World Alive
TTITLE6=Walking The Floor Over You
TTITLE7=I'm Movin' On
TTITLE8=Don't Worry "Bout Me
TTITLE9=Train Of Love
TTITLE10=Jimmie Brown The Newsboy
TTITLE11=Gotta Travel On
TTITLE12=Peace In The Valley
EXTD=YEAR: 2005
EXTT0=
EXTT1=
EXTT2=
EXTT3=
EXTT4=
EXTT5=
EXTT6=
EXTT7=
EXTT8=
EXTT9=
EXTT10=
EXTT11=
EXTT12=
PLAYORDER=
